<mxfile host="app.diagrams.net" modified="2024-01-31T22:59:04.387Z" agent="Mozilla/5.0 (Macintosh; Intel Mac OS X 10_15_7) AppleWebKit/537.36 (KHTML, like Gecko) Chrome/120.0.0.0 Safari/537.36" version="23.1.0" etag="RS0MA2KZOG6gkET4RrsD" type="github">
  <diagram name="Page-1" id="26txgwinAoUf5t76R-Xi">
    <mxGraphModel>
      <root>
        <mxCell id="0" />
        <mxCell id="1" parent="0" />
      </root>
    </mxGraphModel>
  </diagram>
</mxfile>
